<svg width="18" height="19" viewBox="0 0 18 19" fill="none" xmlns="http://www.w3.org/2000/svg">
<path fill-rule="evenodd" clip-rule="evenodd" d="M17.0303 1.29098C17.2341 1.49471 17.3031 1.79713 17.2079 2.06907L11.9579 17.0691C11.8563 17.3593 11.5878 17.5582 11.2806 17.5707C10.9733 17.5832 10.6895 17.4069 10.5646 17.1259L7.6818 10.6395L1.1954 7.75667C0.91439 7.63177 0.738092 7.348 0.750627 7.04074C0.763163 6.73348 0.961991 6.465 1.25224 6.36342L16.2522 1.11342C16.5242 1.01824 16.8266 1.08725 17.0303 1.29098ZM9.14456 10.2374L11.1671 14.788L14.7064 4.67557L9.14456 10.2374ZM13.6457 3.61491L3.53331 7.15426L8.0839 9.17675L13.6457 3.61491Z" fill="white"/>
</svg>
